{"title":"The.Danish.Girl.2015.DVDScr.XVID.AC3.HQ.Hive-CM8","uid":13073536,"size":1685121322,"categoryP":"video","categoryS":"movies","magnet":"?xt=urn:btih:c31fa6b9658967ebf77b3772b25962492f39b095&amp;dn=The.Danish.Girl.2015.DVDScr.XVID.AC3.HQ.Hive-CM8&amp;tr=udp%3A%2F%2Ftracker.leechers-paradise.org%3A6969&amp;tr=udp%3A%2F%2Fzer0day.ch%3A1337&amp;tr=udp%3A%2F%2Fopen.demonii.com%3A1337&amp;tr=udp%3A%2F%2Ftracker.coppersurfer.tk%3A6969&amp;tr=udp%3A%2F%2Fexodus.desync.com%3A6969","seeders":0,"leechers":0,"uploader":"TvTeam","files":4,"time":1450817493,"description":"------------------------------------------------------------------------\r\n\r  https://www.torrenting.com\r\n\r\nSign up is OPEN - for time being. Come and have fun.\r\n\r\n------------------------------------------------------------------------[center][img]http://img908.imageshack.us/img908/3690/ZWz9z3.jpg[/img]\r\n\r\n \r\n[color=blue][size=4][b]The.Danish.Girl.2015.DVDScr.XVID.AC3.HQ.Hive-CM8[/b][/size][/color]\r\n\r\nThx Hive\r\n\r\nCM8 Doing It Right The First Time \r\n\r\nSource: DVD-Screener Big THX m8\r\n\r\n\r\nNotes:\r\n\r\nDVDScreener 8 of 40\r\nwill do them all one after each other, 8th hot title\r\n\r\nEncode:\r\n\r\nquality was perfect on this.\r\nAll digital watermarks are removed.\r\nFixed brightness,contrast and rgb, and added sharpness.\r\n\r\ngot very nice\r\nenjoy\r\n\r\nps: i forgot to mention, plz support the producers and go to the cinema and watch them on a big screen too\r\nthx\r\n\r\nVideo: 720x400 @bitrate 1600 2pass\r\nAudio: English AC3 2.0 Stereo\r\nSample: yes included\r\n\r\n\r\n \nhttp://www.imdb.com/title/tt0810819/\r\n\r\n\r\n\r\nGeneral\r\nComplete name                  : The.Danish.Girl.2015.DVDScr.XVID.AC3.HQ.Hive-CM8.avi\r\nFormat                         : AVI\r\nFormat/Info                    : Audio Video Interleave\r\nFile size                      : 1.56 GiB\r\nDuration                       : 1h 59mn\r\nOverall bit rate               : 1 867 Kbps\r\nWriting application            : Nandub v1.0rc2\r\nWriting library                : Nandub build 1853/release\r\n\r\nVideo\r\nID                             : 0\r\nFormat                         : MPEG-4 Visual\r\nFormat profile                 : Advanced   \r\nFormat settings, BVOP          : 2\r\nFormat settings, QPel          : Yes\r\nFormat settings, GMC           : No warppoints\r\nFormat settings, Matrix        : Default (H.263)\r\nMuxing mode                    : Packed bitstream\r\nCodec ID                       : XVID\r\nCodec ID/Hint                  : XviD\r\nDuration                       : 1h 59mn\r\nBit rate                       : 1 599 Kbps\r\nWidth                          : 720 pixels\r\nHeight                         : 400 pixels\r\nDisplay aspect ratio           : 16:9\r\nFrame rate                     : 29.970 fps\r\nColor space                    : YUV\r\nChroma subsampling             : 4:2:0\r\nBit depth                      : 8 bits\r\nScan type                      : Progressive\r\nCompression mode               : Lossy\r\nBits/(Pixel*Frame)             : 0.185\r\nStream size                    : 1.33 GiB (86%)\r\nWriting library                : XviD 1.2.1 (UTC 2008-12-04)\r\n\r\nAudio\r\nID                             : 1\r\nFormat                         : AC-3\r\nFormat/Info                    : Audio Coding 3\r\nMode extension                 : CM (complete main)\r\nFormat settings, Endianness    : Big\r\nCodec ID                       : 2000\r\nDuration                       : 1h 59mn\r\nBit rate mode                  : Constant\r\nBit rate                       : 256 Kbps\r\nChannel(s)                     : 2 channels\r\nChannel positions              : Front: L R\r\nSampling rate                  : 48.0 KHz\r\nBit depth                      : 16 bits\r\nCompression mode               : Lossy\r\nDelay relative to video        : 10ms\r\nStream size                    : 219 MiB (14%)\r\nAlignment                      : Split accross interleaves\r\nInterleave, duration           : 33 ms (1.00 video frame)\r\nInterleave, preload duration   : 500 ms\r\n\r\n\r\nScreens \r\n\r\n[img]http://img907.imageshack.us/img907/489/3IdbED.png[/img]\r\n[img]http://img908.imageshack.us/img908/2566/EAKGL2.png[/img]\r\n[img]http://img908.imageshack.us/img908/797/P1Ca3a.png[/img]\r\n[img]http://img905.imageshack.us/img905/161/VI2B4S.png[/img]\r\n\r\n\r\n\r\nPlot\r\n\r\nA fictional love story inspired by the lives of Danish artists Lili Elbe and Gerda Wegener. \r\nLili and Gerda's marriage and work evolve as they navigate Lili's groundbreaking journey as a transgender pioneer.\r\n\r\n\r\nCast\r\n\r\nAlicia Vikander ... \tGerda Wegener\r\nEddie Redmayne \t... \tEinar Wegener / Lili Elbe\r\nAdrian Schiller ... \tRasmussen\r\nAmber Heard \t... \tUlla \r\n\r\n\r\nSugarB,iNCOMiNG,Izzy,MenaceIISociety,jiinx,SiMPLE,CherryBomb,bigguy79\r\nranbailey,ViSiON,UnKnOwN,YanKeeS,COPYxRIGHT,THC,VAiN,ACAB,DRs\r\nLKRG,Kingstoner,SiMPLE,TiTAN,cadance,PLAYNOW\r\nUnevano,BigVik,Rapeseed,SAFC,goldadvance,KaN1vE,Pinnz,Wayne,HiGH\r\nSeeN,jtr,Limey,ICONiK,TED,rkofan,mrtoke09\r\nMr Hive\r\n\r\nWONDER WHERE ALL THE OLD DDD FOLKS ARE DONT BE SCARED MESSAGE ME \r\n\r\n\r\n\r\n\r\nLOOKING FOR ANYTHING YOU WANT TO LOOK AND SOUND BETTER\r\n\r\nCOME FIND US WE DONT BITE \r\n\r\n  [/center]","torrent":{"xt":"urn:btih:c31fa6b9658967ebf77b3772b25962492f39b095","amp;dn":"The.Danish.Girl.2015.DVDScr.XVID.AC3.HQ.Hive-CM8","amp;tr":["udp%3A%2F%2Ftracker.leechers-paradise.org%3A6969","udp%3A%2F%2Fzer0day.ch%3A1337","udp%3A%2F%2Fopen.demonii.com%3A1337","udp%3A%2F%2Ftracker.coppersurfer.tk%3A6969","udp%3A%2F%2Fexodus.desync.com%3A6969"],"infoHash":"c31fa6b9658967ebf77b3772b25962492f39b095","infoHashBuffer":{"type":"Buffer","data":[195,31,166,185,101,137,103,235,247,123,55,114,178,89,98,73,47,57,176,149]},"announce":[],"urlList":[]}}